name Walk7.mot
datacolumns 19
datarows 27
range 2.29000000 2.31600000
endheader

                time	   L_ground_force_vx	   L_ground_force_vy	   L_ground_force_vz	   L_ground_force_px	   L_ground_force_py	   L_ground_force_pz	   R_ground_force_vx	   R_ground_force_vy	   R_ground_force_vz	   R_ground_force_px	   R_ground_force_py	   R_ground_force_pz	   L_ground_torque_x	   L_ground_torque_y	   L_ground_torque_z	   R_ground_torque_x	   R_ground_torque_y	   R_ground_torque_z	
          2.29000000	         -0.00000000	         -0.00000001	          0.00000000	          0.00000000	          0.00000000	          0.00000000	         11.58590680	         38.45147544	          3.23945691	          0.19276684	          0.00000000	          0.03376443	          0.00000000	         -0.00000000	          0.00000000	          0.00000000	          0.08643004	          0.00000000	
          2.29100000	         -0.00000000	         -0.00000000	          0.00000000	          0.00000000	          0.00000000	          0.00000000	         10.68238621	         35.36876073	          3.00274058	          0.18658343	          0.00000000	          0.03266533	          0.00000000	         -0.00000000	          0.00000000	          0.00000000	          0.08608031	          0.00000000	
          2.29200000	         -0.00000000	         -0.00000000	          0.00000000	          0.00000000	          0.00000000	          0.00000000	          9.81617853	         32.41808587	          2.77466369	          0.18027813	          0.00000000	          0.03154642	          0.00000000	         -0.00000000	          0.00000000	          0.00000000	          0.08546594	          0.00000000	
          2.29300000	         -0.00000000	         -0.00000000	         -0.00000000	          0.00000000	          0.00000000	          0.00000000	          8.98708305	         29.59812590	          2.55539608	          0.17386767	          0.00000000	          0.03041057	          0.00000000	         -0.00000000	          0.00000000	          0.00000000	          0.08460166	          0.00000000	
          2.29400000	         -0.00000000	         -0.00000000	         -0.00000000	          0.00000000	          0.00000000	          0.00000000	          8.19484819	         26.90746842	          2.34505391	          0.16737063	          0.00000000	          0.02926093	          0.00000000	         -0.00000000	          0.00000000	          0.00000000	          0.08350380	          0.00000000	
          2.29500000	          0.00000000	         -0.00000000	         -0.00000000	          0.00000000	          0.00000000	          0.00000000	          7.43917267	         24.34461204	          2.14370156	          0.16080754	          0.00000000	          0.02810101	          0.00000000	         -0.00000000	          0.00000000	          0.00000000	          0.08219035	          0.00000000	
          2.29600000	          0.00000000	         -0.00000000	         -0.00000000	          0.00000000	          0.00000000	          0.00000000	          6.71970434	         21.90795544	          1.95135456	          0.15420094	          0.00000000	          0.02693465	          0.00000000	         -0.00000000	          0.00000000	          0.00000000	          0.08068072	          0.00000000	
          2.29700000	          0.00000000	         -0.00000000	         -0.00000000	          0.00000000	          0.00000000	          0.00000000	          6.03603466	         19.59576845	          1.76798400	          0.14757519	          0.00000000	          0.02576602	          0.00000000	         -0.00000000	          0.00000000	          0.00000000	          0.07899533	          0.00000000	
          2.29800000	          0.00000000	         -0.00000000	         -0.00000000	          0.00000000	          0.00000000	          0.00000000	          5.38768719	         17.40613637	          1.59352301	          0.14095539	          0.00000000	          0.02459943	          0.00000000	         -0.00000000	          0.00000000	          0.00000000	          0.07715484	          0.00000000	
          2.29900000	          0.00000000	         -0.00000000	         -0.00000000	          0.00000000	          0.00000000	          0.00000000	          4.77410612	         15.33690218	          1.42787387	          0.13436581	          0.00000000	          0.02343908	          0.00000000	         -0.00000000	          0.00000000	          0.00000000	          0.07517929	          0.00000000	
          2.30000000	          0.00000000	         -0.00000000	         -0.00000000	          0.00000000	          0.00000000	          0.00000000	          4.19465402	         13.38564831	          1.27091330	          0.12782876	          0.00000000	          0.02228881	          0.00000000	         -0.00000000	          0.00000000	          0.00000000	          0.07308762	          0.00000000	
          2.30100000	          0.00000000	         -0.00000000	         -0.00000000	          0.00000000	          0.00000000	          0.00000000	          3.64861874	         11.54971693	          1.12249569	          0.12136448	          0.00000000	          0.02115212	          0.00000000	         -0.00000000	          0.00000000	          0.00000000	          0.07089762	          0.00000000	
          2.30200000	          0.00000000	         -0.00000000	         -0.00000000	          0.00000000	          0.00000000	          0.00000000	          3.13522236	          9.82624038	          0.98245551	          0.11499121	          0.00000000	          0.02003215	          0.00000000	         -0.00000000	          0.00000000	          0.00000000	          0.06862591	          0.00000000	
          2.30300000	          0.00000000	          0.00000000	         -0.00000000	          0.00000000	          0.00000000	          0.00000000	          2.65362981	          8.21216992	          0.85060966	          0.10872530	          0.00000000	          0.01893170	          0.00000000	         -0.00000000	          0.00000000	          0.00000000	          0.06628803	          0.00000000	
          2.30400000	          0.00000000	          0.00000000	         -0.00000000	          0.00000000	          0.00000000	          0.00000000	          2.20295682	          6.70430256	          0.72675964	          0.10258130	          0.00000000	          0.01785328	          0.00000000	         -0.00000000	          0.00000000	          0.00000000	          0.06389844	          0.00000000	
          2.30500000	          0.00000000	          0.00000000	         -0.00000000	          0.00000000	          0.00000000	          0.00000000	          1.78227745	          5.29930637	          0.61069361	          0.09657205	          0.00000000	          0.01679909	          0.00000000	         -0.00000000	          0.00000000	          0.00000000	          0.06147056	          0.00000000	
          2.30600000	          0.00000000	          0.00000000	         -0.00000000	          0.00000000	          0.00000000	          0.00000000	          1.39063119	          3.99374396	          0.50218833	          0.09070881	          0.00000000	          0.01577105	          0.00000000	         -0.00000000	          0.00000000	          0.00000000	          0.05901683	          0.00000000	
          2.30700000	          0.00000000	          0.00000000	         -0.00000000	          0.00000000	          0.00000000	          0.00000000	          1.02702945	          2.78409448	          0.40101096	          0.08500132	          0.00000000	          0.01477082	          0.00000000	         -0.00000000	          0.00000000	          0.00000000	          0.05654872	          0.00000000	
          2.30800000	          0.00000000	          0.00000000	         -0.00000000	          0.00000000	          0.00000000	          0.00000000	          0.69046175	          1.66677399	          0.30692079	          0.07945791	          0.00000000	          0.01379983	          0.00000000	         -0.00000000	          0.00000000	          0.00000000	          0.05407677	          0.00000000	
          2.30900000	          0.00000000	          0.00000000	         -0.00000000	          0.00000000	          0.00000000	          0.00000000	          0.37990133	          0.63815439	          0.21967077	          0.07408556	          0.00000000	          0.01285924	          0.00000000	         -0.00000000	          0.00000000	          0.00000000	          0.05161065	          0.00000000	
          2.31000000	          0.00000000	          0.00000000	         -0.00000000	          0.00000000	          0.00000000	          0.00000000	          0.09431050	         -0.30541912	          0.13900903	          0.06889005	          0.00000000	          0.01195003	          0.00000000	         -0.00000000	          0.00000000	          0.00000000	          0.04915919	          0.00000000	
          2.31100000	          0.00000000	          0.00000000	         -0.00000000	          0.00000000	          0.00000000	          0.00000000	         -0.16735459	         -1.16761198	          0.06468021	          0.06387596	          0.00000000	          0.01107298	          0.00000000	         -0.00000000	          0.00000000	          0.00000000	          0.04673040	          0.00000000	
          2.31200000	          0.00000000	          0.00000000	         -0.00000000	          0.00000000	          0.00000000	          0.00000000	         -0.40613943	         -1.95208548	         -0.00357329	          0.05904681	          0.00000000	          0.01022865	          0.00000000	         -0.00000000	          0.00000000	          0.00000000	          0.04433153	          0.00000000	
          2.31300000	          0.00000000	          0.00000000	         -0.00000000	          0.00000000	          0.00000000	          0.00000000	         -0.62308708	         -2.66248329	         -0.06601008	          0.05440514	          0.00000000	          0.00941745	          0.00000000	         -0.00000000	          0.00000000	          0.00000000	          0.04196911	          0.00000000	
          2.31400000	          0.00000000	          0.00000000	         -0.00000000	          0.00000000	          0.00000000	          0.00000000	         -0.81923444	         -3.30241922	         -0.12288880	          0.04995253	          0.00000000	          0.00863965	          0.00000000	         -0.00000000	          0.00000000	          0.00000000	          0.03964895	          0.00000000	
          2.31500000	          0.00000000	          0.00000000	         -0.00000000	          0.00000000	          0.00000000	          0.00000000	         -0.99560883	         -3.87546605	         -0.17446709	          0.04568975	          0.00000000	          0.00789532	          0.00000000	         -0.00000000	          0.00000000	          0.00000000	          0.03737625	          0.00000000	
          2.31600000	          0.00000000	          0.00000000	         -0.00000000	          0.00000000	          0.00000000	          0.00000000	         -1.15322497	         -4.38514557	         -0.22100070	          0.04161675	          0.00000000	          0.00718445	          0.00000000	         -0.00000000	          0.00000000	          0.00000000	          0.03515554	          0.00000000	
